<?xml version="1.0" encoding="UTF-8"?>
<!DOCTYPE svg PUBLIC "-//W3C//DTD SVG 1.1//EN" "http://www.w3.org/Graphics/SVG/1.1/DTD/svg11.dtd">
<!-- Creator: CorelDRAW X8 -->
<svg xmlns="http://www.w3.org/2000/svg" xml:space="preserve" width="0.270827in" height="0.218748in" version="1.1" style="shape-rendering:geometricPrecision; text-rendering:geometricPrecision; image-rendering:optimizeQuality; fill-rule:evenodd; clip-rule:evenodd"
viewBox="0 0 271 219"
 xmlns:xlink="http://www.w3.org/1999/xlink">
 <defs>
  <style type="text/css">
   <![CDATA[
    .fil0 {fill:white}
   ]]>
  </style>
 </defs>
 <g id="Layer_x0020_1">
  <metadata id="CorelCorpID_0Corel-Layer"/>
  <path class="fil0" d="M143 217l0 -83 -28 0 0 -33 28 0c0,-12 -2,-27 2,-39 2,-9 9,-18 18,-23 11,-5 21,-5 35,-4 4,0 7,0 10,1 2,0 1,-1 1,3l0 26c-1,0 -14,0 -17,0 -15,0 -16,7 -16,19 0,6 0,11 0,17l32 0 -4 33 -28 0 0 83c9,0 17,0 26,0 8,0 17,0 25,0 5,0 8,0 11,-3 2,-1 4,-4 5,-8 0,-4 0,-21 0,-26l0 -155c0,-9 1,-16 -5,-21 -4,-2 -6,-2 -11,-2l-180 0c-4,0 -9,0 -12,1 -3,1 -5,4 -6,7 -1,3 -1,8 -1,12l0 180c0,5 0,7 3,10 1,2 5,4 9,5 8,0 17,0 25,0l78 0z"/>
 </g>
</svg>
