<?xml version="1.0" encoding="UTF-8"?>
<!DOCTYPE svg PUBLIC "-//W3C//DTD SVG 1.1//EN" "http://www.w3.org/Graphics/SVG/1.1/DTD/svg11.dtd">
<!-- Creator: CorelDRAW X8 -->
<svg xmlns="http://www.w3.org/2000/svg" xml:space="preserve" width="0.270827in" height="0.218748in" version="1.1" style="shape-rendering:geometricPrecision; text-rendering:geometricPrecision; image-rendering:optimizeQuality; fill-rule:evenodd; clip-rule:evenodd"
viewBox="0 0 271 219"
 xmlns:xlink="http://www.w3.org/1999/xlink">
 <defs>
  <style type="text/css">
   <![CDATA[
    .fil0 {fill:white}
   ]]>
  </style>
 </defs>
 <g id="Layer_x0020_1">
  <metadata id="CorelCorpID_0Corel-Layer"/>
  <g id="_1333690436800">
   <path class="fil0" d="M93 22c27,-1 58,-1 85,0 30,2 43,14 45,43 2,26 2,62 0,88 -2,29 -15,42 -45,43 -27,1 -59,1 -86,0 -29,-1 -43,-14 -45,-43 -1,-26 -1,-62 0,-88 2,-29 16,-42 46,-43zm-66 43l0 93c0,0 0,1 1,1 0,0 0,1 0,1 3,10 2,20 13,34 25,30 76,22 122,22 32,0 56,-6 69,-26 14,-23 11,-56 11,-85 0,-30 3,-61 -14,-81 -17,-20 -40,-22 -74,-22 -23,0 -71,-2 -90,6 -38,14 -34,47 -38,57z"/>
   <path class="fil0" d="M100 116c-9,-47 62,-59 70,-14 9,47 -61,59 -70,14zm-20 0c4,28 29,51 62,48 28,-4 52,-29 48,-62 -3,-28 -29,-51 -62,-48 -28,4 -52,29 -48,62z"/>
   <path class="fil0" d="M180 56c4,14 30,11 25,-7 -3,-16 -29,-12 -25,7z"/>
  </g>
 </g>
</svg>
