<?xml version="1.0" encoding="UTF-8"?>
<!DOCTYPE svg PUBLIC "-//W3C//DTD SVG 1.1//EN" "http://www.w3.org/Graphics/SVG/1.1/DTD/svg11.dtd">
<!-- Creator: CorelDRAW X8 -->
<svg xmlns="http://www.w3.org/2000/svg" xml:space="preserve" width="0.270827in" height="0.218748in" version="1.1" style="shape-rendering:geometricPrecision; text-rendering:geometricPrecision; image-rendering:optimizeQuality; fill-rule:evenodd; clip-rule:evenodd"
viewBox="0 0 271 219"
 xmlns:xlink="http://www.w3.org/1999/xlink">
 <defs>
  <style type="text/css">
   <![CDATA[
    .fil0 {fill:white}
   ]]>
  </style>
 </defs>
 <g id="Layer_x0020_1">
  <metadata id="CorelCorpID_0Corel-Layer"/>
  <path class="fil0" d="M30 136c5,19 26,34 50,36 -3,7 -25,16 -33,19 -19,6 -28,5 -48,6 54,31 119,33 171,0 21,-14 39,-33 52,-56 27,-48 20,-82 22,-88l14 -12c4,-4 9,-9 11,-14 2,-1 1,3 2,-2l-4 2 -21 5c-7,0 -3,1 -4,-1 7,-3 19,-17 22,-28 -9,4 -22,10 -32,12 -5,1 -5,-1 -8,-4 -9,-8 -28,-15 -45,-12 -36,6 -50,35 -46,68 -21,2 -54,-11 -69,-19 -27,-15 -30,-23 -48,-39 -7,10 -9,29 -5,43 6,20 17,24 22,31 -10,0 -16,-3 -24,-6 -1,20 11,38 26,47 3,2 5,3 8,5 5,2 6,1 8,3 -4,4 -13,2 -18,2l-5 -1 2 3z"/>
 </g>
</svg>
